<svg fill="none" height="40" viewBox="0 0 40 40" width="40" xmlns="http://www.w3.org/2000/svg">
	<mask height="40" id="mask0_310_25122" maskUnits="userSpaceOnUse" style="mask-type:alpha" width="36" x="2" y="0">
		<path clip-rule="evenodd" d="M12.5 22.5H27.5C28.8818 22.5 30 23.6172 30 25V30C30 31.3828 28.8818 32.5 27.5 32.5H12.5C11.1182 32.5 10 31.3828 10 30V25C10 23.6172 11.1182 22.5 12.5 22.5ZM27.5 30V25H12.5V30H27.5Z" fill="#6B6C7E" fill-rule="evenodd" />
		<path d="M12.5 20H27.5C30.7812 20 30.7812 15 27.5 15H12.5C9.14062 15 9.21875 20 12.5 20Z" fill="#6B6C7E" />
		<path clip-rule="evenodd" d="M7.5 0H25.4297C27.6514 0 28.6255 1.00891 30.8911 3.3551L31.0352 3.50372L31.1255 3.59802C31.5479 4.03442 32.0142 4.51416 32.5391 5.03906C33.1104 5.61035 33.6255 6.11237 34.0894 6.56281L34.104 6.57776C36.5137 8.91937 37.5 9.87854 37.5 12.0703V35C37.5 37.7579 35.2588 40 32.5 40H7.5C4.74121 40 2.5 37.7579 2.5 35V5C2.5 2.24213 4.74121 0 7.5 0ZM25 10V5H7.5V35H32.5V12.5H27.5C26.1182 12.5 25 11.3828 25 10Z" fill="#6B6C7E" fill-rule="evenodd" />
	</mask>
	<g mask="url(#mask0_310_25122)">
		<rect fill="#3D8CCB" height="40" width="40" />
	</g>
</svg>